<svg width="471" height="471" viewBox="0 0 471 471" fill="none" xmlns="http://www.w3.org/2000/svg">
<g clip-path="url(#clip0_8_75)">
<path d="M467.6 309.093C465 306.293 461 305.193 457.3 306.293C438.1 312.093 416.5 315.093 394.7 315.093C271.6 315.093 171.5 216.793 171.5 95.993C171.5 69.193 176.6 42.193 187.2 13.593C188.5 9.99299 187.7 6.09299 185.1 3.29299C182.5 0.492992 178.6 -0.507008 175 0.492992C124.2 15.193 80.5 44.993 48.7 86.893C16.8 128.793 0 178.593 0 230.993C0 362.793 109.5 470.093 244.2 470.093C292.9 470.093 339.9 455.893 380.5 428.893C420.9 401.893 451.7 364.093 469.5 319.593C470.9 315.993 470.2 311.893 467.6 309.093ZM244.2 450.093C120.6 450.093 20 351.793 20 230.993C20 140.393 77.4 58.693 161.9 25.993C154.8 49.793 151.4 72.893 151.3 95.993C151.3 159.993 176.6 220.093 222.6 265.193C268.5 310.293 329.5 335.093 394.5 335.093C410.8 335.093 427 333.493 442.3 330.493C405 402.793 327.8 450.093 244.2 450.093Z" fill="#FFFCF2"/>
</g>
<defs>
<clipPath id="clip0_8_75">
<rect width="470.208" height="470.208" fill="white"/>
</clipPath>
</defs>
</svg>
