<svg width="88" height="88" viewBox="0 0 88 88" fill="none" xmlns="http://www.w3.org/2000/svg">
<g clip-path="url(#clip0_7_74)">
<path d="M12.0188 78.7531L5 0H82.15L75.1218 78.7406L43.5281 87.5L12.0188 78.7531Z" fill="#264DE4"/>
<path d="M43.575 80.8063L69.1062 73.7281L75.1125 6.44055H43.575V80.8063Z" fill="#2965F1"/>
<path d="M43.575 34.9719H56.3562L57.2375 25.0813H43.575V15.4219H43.6094H67.7937L67.5625 18.0125L65.1906 44.6313H43.575V34.9719Z" fill="white"/>
<path d="M43.6344 60.0563L43.5906 60.0688L32.8344 57.1625L32.1469 49.4594H26.9187H22.45L23.8031 64.625L43.5875 70.1188L43.6344 70.1063V60.0563Z" fill="#EBEBEB"/>
<path d="M55.5344 44.2219L54.3719 57.1562L43.6 60.0625V70.1125L63.4 64.625L63.5469 62.9937L65.225 44.2219H55.5344Z" fill="white"/>
<path d="M43.6093 15.4219V21.4219V25.0562V25.0813H20.3094H20.2781L20.0844 22.9094L19.6438 18.0125L19.4125 15.4219H43.6093Z" fill="#EBEBEB"/>
<path d="M43.575 34.9719V40.9719V44.6063V44.6313H32.9844H32.9531L32.7594 42.4594L32.3219 37.5625L32.0906 34.9719H43.575Z" fill="#EBEBEB"/>
</g>
<defs>
<clipPath id="clip0_7_74">
<rect width="78" height="88" fill="white" transform="translate(5)"/>
</clipPath>
</defs>
</svg>
