<svg width="200" height="200" viewBox="0 0 200 200" fill="none" xmlns="http://www.w3.org/2000/svg">
<path d="M13.724 127.555L12.234 127.062C12.234 127.062 12.4244 119.52 9.70416 118.992C7.91085 116.913 9.98014 30.2194 16.496 118.694C16.496 118.694 14.266 119.814 13.8439 121.716C13.4218 123.619 13.724 127.555 13.724 127.555" fill="url(#paint0_linear_5_51)"/>
<path d="M14.5275 120.272C14.5275 120.272 27.476 111.744 24.4425 94.0327C21.5208 81.1651 14.6236 76.9351 13.8824 75.3205C13.0666 74.1776 12.2451 72.1514 12.2451 72.1514L12.7953 108.004C12.7953 108.004 11.6564 118.952 14.5275 120.272" fill="url(#paint1_linear_5_51)"/>
<path d="M11.4759 120.748C11.4759 120.748 -0.669663 112.462 0.029029 97.8429C0.727721 83.2233 9.30649 76.0349 10.9775 74.7307C12.0576 73.5796 12.1024 73.136 12.1857 72C12.9426 73.6262 12.8168 96.2918 12.8972 98.941C13.2087 109.254 12.326 118.802 11.4759 120.748Z" fill="url(#paint2_linear_5_51)"/>
<path d="M158.239 116.029C159.097 116.716 160.815 116.999 162.329 116.999C164.293 116.999 166.216 116.635 168.098 114.939C170.02 113.201 171.329 110.535 171.329 106.292C171.329 102.212 169.775 98.8991 166.584 96.9596C164.784 95.8283 162.452 95.3841 159.793 95.3841C159.016 95.3841 158.239 95.4248 157.789 95.6263C157.666 95.7072 157.42 96.0304 157.42 96.1928C157.338 96.9194 157.338 102.454 157.338 105.726C157.338 109.08 157.338 113.767 157.42 114.333C157.462 114.817 157.706 115.665 158.239 116.029V116.029ZM150.073 93.5663C150.768 93.5663 153.411 93.6868 154.639 93.6868C156.93 93.6868 158.524 93.5663 162.82 93.5663C166.42 93.5663 169.448 94.5357 171.616 96.3943C174.235 98.6569 175.625 101.808 175.625 105.646C175.625 111.101 173.129 114.252 170.635 116.029C168.138 117.887 164.906 118.938 160.284 118.938C157.829 118.938 153.615 118.857 150.097 118.818H150.049C149.885 118.493 150.35 117.234 150.638 117.201C151.589 117.094 151.847 117.057 152.288 116.875C153.03 116.57 153.206 116.191 153.289 114.857C153.411 112.353 153.37 109.363 153.37 105.969C153.37 103.545 153.411 98.8181 153.329 97.3229C153.206 96.0711 152.676 95.748 151.611 95.5052C151.079 95.3841 150.343 95.263 149.32 95.1419C149.238 94.8996 149.868 93.8079 150.073 93.5663" fill="#C0BDBA"/>
<path d="M186.458 95.5459C186.295 95.5861 186.09 95.9908 186.09 96.1928C186.05 97.6467 186.009 101.444 186.009 104.07C186.009 104.151 186.131 104.272 186.214 104.272C186.745 104.313 188.054 104.354 189.159 104.354C190.713 104.354 191.614 104.151 192.104 103.909C193.413 103.262 194.027 101.848 194.027 100.313C194.027 96.7983 191.572 95.465 187.932 95.465C187.686 95.465 186.99 95.465 186.458 95.5459V95.5459ZM195.745 111.707C195.745 108.151 193.127 106.131 188.34 106.131C188.136 106.131 186.622 106.09 186.254 106.172C186.131 106.211 186.009 106.292 186.009 106.373C186.009 108.919 185.967 112.999 186.09 114.615C186.172 115.302 186.664 116.272 187.277 116.554C187.932 116.918 189.404 116.999 190.427 116.999C193.249 116.999 195.745 115.423 195.745 111.707ZM179.07 93.5663C179.438 93.5663 180.527 93.6868 183.309 93.6868C185.927 93.6868 188.054 93.6065 190.59 93.6065C193.74 93.6065 198.076 94.7378 198.076 99.4243C198.076 101.727 196.441 103.586 194.313 104.475C194.19 104.515 194.19 104.596 194.313 104.637C197.341 105.403 200 107.262 200 110.818C200 114.292 197.832 116.474 194.682 117.848C192.759 118.695 190.387 118.978 187.972 118.978C186.131 118.978 181.198 118.776 178.457 118.818C178.17 118.695 178.72 117.403 178.964 117.201C179.619 117.161 180.124 117.113 180.82 116.911C181.801 116.669 181.917 116.352 182.04 114.898C182.123 113.646 182.123 109.161 182.123 105.969C182.123 101.606 182.163 98.6569 182.123 97.2024C182.081 96.0711 181.672 95.7072 180.895 95.5052C180.282 95.3841 179.259 95.263 178.441 95.1419C178.236 94.9398 178.866 93.7276 179.07 93.5663Z" fill="#C0BDBA"/>
<path d="M32.7168 118.921C32.6486 118.812 32.5764 118.49 32.5916 118.104C32.6032 117.81 32.6615 117.623 32.7168 117.559C33.4882 117.437 33.8533 117.355 34.2871 117.239C35.0102 117.06 35.2827 116.669 35.3252 115.744C35.444 113.565 35.451 109.479 35.4073 106.606L35.4079 106.521C35.4114 106.213 35.4161 105.791 35.0289 105.494C34.4618 105.12 33.7543 104.811 32.8594 104.543C32.5171 104.441 32.3272 104.261 32.3377 104.051C32.3482 103.848 32.5631 103.591 33.0096 103.505C34.1939 103.382 37.3002 102.643 38.5188 102.08C38.591 102.168 38.7051 102.358 38.683 102.662C38.6737 102.788 38.6626 102.922 38.6516 103.06C38.6166 103.466 38.5776 103.926 38.5776 104.386C38.5776 104.521 38.7244 104.649 38.8798 104.649C38.959 104.649 39.0318 104.618 39.0912 104.559C41.4143 102.741 43.4918 102.092 44.5613 102.092C46.3186 102.092 47.6863 102.931 48.743 104.656C48.8053 104.747 48.8886 104.795 48.9812 104.795C49.0697 104.795 49.1535 104.749 49.203 104.676C51.3387 103.058 53.4557 102.092 54.8706 102.092C58.2196 102.092 60.2202 104.596 60.2202 108.79C60.2202 109.994 60.2074 111.522 60.1969 112.947C60.187 114.198 60.1783 115.371 60.1783 116.182C60.1783 116.379 60.4415 116.925 60.8386 117.034C61.3282 117.272 62.0356 117.393 62.9294 117.548L62.9637 117.553C63.0319 117.793 62.8892 118.729 62.753 118.92C62.5317 118.918 62.2243 118.902 61.8418 118.883C61.1466 118.847 60.1934 118.799 59.0843 118.799C56.8589 118.799 55.6962 118.843 54.5853 118.914C54.502 118.637 54.4729 117.742 54.5748 117.556C55.2222 117.435 55.5425 117.353 55.9314 117.238C56.6394 117.005 56.8438 116.684 56.8845 115.744C56.9014 115.076 57.0295 109.195 56.8019 107.799C56.5917 106.352 55.5 104.658 53.1116 104.658C52.226 104.658 50.7948 105.026 49.4301 106.06C49.3456 106.142 49.2967 106.301 49.2967 106.406L49.2996 106.433C49.4603 107.187 49.4603 108.066 49.4603 109.396C49.4603 110.154 49.4551 110.958 49.451 111.756C49.4417 113.378 49.433 114.908 49.4603 116.065C49.4603 116.854 49.9372 117.042 50.3215 117.194C50.5293 117.24 50.6953 117.279 50.8606 117.319C51.1826 117.396 51.5151 117.476 52.0077 117.555C52.0746 117.711 52.081 118.175 51.9884 118.572C51.9366 118.791 51.8772 118.887 51.8464 118.919C50.6085 118.876 49.3387 118.84 47.5069 118.84C46.9515 118.84 46.0449 118.864 45.2449 118.885C44.5969 118.902 43.9826 118.919 43.6338 118.921C43.5832 118.84 43.5121 118.585 43.5121 118.216C43.5121 117.874 43.5756 117.632 43.6402 117.558C43.812 117.526 43.9756 117.497 44.1322 117.469C44.5619 117.393 44.9328 117.327 45.2892 117.24C45.8953 117.055 46.1229 116.718 46.1672 115.948C46.2854 114.15 46.378 108.971 46.1229 107.673C45.6897 105.592 44.5031 104.538 42.5974 104.538C41.4807 104.538 40.0705 105.074 38.9171 105.938C38.7238 106.08 38.5776 106.439 38.5776 106.769C38.5776 107.386 38.5759 108.121 38.5736 108.908C38.5654 111.509 38.5567 114.747 38.6201 116.148C38.6586 116.579 38.8088 117.091 39.6216 117.281C39.7992 117.33 40.1066 117.381 40.4624 117.44C40.6673 117.474 40.8915 117.512 41.122 117.553C41.2047 117.775 41.1541 118.649 41.012 118.921C40.6568 118.918 40.2196 118.898 39.7177 118.876C38.9508 118.842 37.9977 118.799 36.9113 118.799C35.6326 118.799 34.7424 118.842 34.0274 118.876C33.5476 118.898 33.1319 118.918 32.7168 118.921Z" fill="#414044"/>
<path d="M73.3021 103.81C72.5574 103.81 71.8622 104.005 71.3451 104.359C69.9245 105.222 69.2013 106.945 69.2013 109.476C69.2013 114.216 71.5774 117.526 74.9789 117.526C75.9827 117.526 76.8008 117.238 77.4808 116.645C78.5259 115.793 79.0802 114.053 79.0802 111.617C79.0802 106.947 76.7583 103.81 73.3021 103.81ZM73.9571 119.284C67.8109 119.284 65.6211 114.781 65.6211 110.567C65.6211 107.623 66.8258 105.322 69.2036 103.727C70.8939 102.689 72.9114 102.092 74.7344 102.092C79.4249 102.092 82.7012 105.461 82.7012 110.284C82.7012 113.564 81.3917 116.153 78.9155 117.77C77.7277 118.498 75.6671 119.284 73.9571 119.284" fill="#414044"/>
<path d="M136.95 103.81C136.204 103.81 135.508 104.005 134.992 104.359C133.572 105.222 132.849 106.945 132.849 109.476C132.849 114.216 135.224 117.526 138.626 117.526C139.63 117.526 140.448 117.238 141.128 116.644C142.173 115.793 142.728 114.053 142.728 111.618C142.728 106.947 140.406 103.81 136.95 103.81V103.81ZM137.604 119.284C131.458 119.284 129.268 114.781 129.268 110.567C129.268 107.623 130.474 105.321 132.852 103.726C134.541 102.689 136.559 102.092 138.381 102.092C143.072 102.092 146.349 105.462 146.349 110.284C146.349 113.565 145.039 116.153 142.563 117.77C141.375 118.498 139.315 119.284 137.604 119.284Z" fill="#414044"/>
<path d="M116.382 103.649C114.487 103.649 113.263 105.143 113.263 107.456C113.263 109.791 114.316 112.516 117.282 112.516C117.792 112.516 118.715 112.29 119.173 111.786C119.862 111.154 120.312 109.846 120.312 108.466C120.312 105.449 118.843 103.649 116.382 103.649ZM116.137 119.607C115.425 119.607 114.907 119.814 114.598 119.987C113.098 120.947 112.403 121.906 112.403 123.01C112.403 124.052 112.808 124.879 113.678 125.615C114.73 126.506 116.151 126.94 118.018 126.94C121.692 126.94 123.339 124.966 123.339 123.01C123.339 121.65 122.655 120.737 121.249 120.221C120.165 119.825 118.354 119.607 116.137 119.607V119.607ZM116.382 128.981C114.176 128.981 112.585 128.515 111.227 127.472C109.906 126.453 109.314 124.943 109.314 123.899C109.314 123.599 109.385 122.823 110.038 122.082C110.423 121.646 111.313 120.829 113.37 119.416C113.433 119.392 113.477 119.329 113.477 119.254C113.477 119.169 113.423 119.101 113.348 119.085C111.653 118.437 111.141 117.373 110.987 116.795C110.985 116.775 110.978 116.742 110.97 116.706C110.922 116.48 110.877 116.266 111.183 116.046C111.42 115.877 111.802 115.651 112.205 115.413C112.801 115.062 113.477 114.663 113.851 114.343C113.91 114.285 113.934 114.2 113.92 114.116C113.905 114.03 113.856 113.96 113.783 113.924C111.274 113.082 110.01 111.22 110.01 108.385C110.01 106.555 110.855 104.9 112.328 103.846C113.337 103.049 115.87 102.092 117.511 102.092L117.606 102.092C119.295 102.132 120.246 102.485 121.563 102.972C122.278 103.237 122.955 103.345 123.902 103.345C125.3 103.345 125.91 102.902 126.434 102.394C126.464 102.457 126.535 102.656 126.567 103.116C126.6 103.586 126.472 104.28 126.113 104.776C125.827 105.172 125.165 105.459 124.54 105.459C124.477 105.459 124.415 105.456 124.356 105.449C123.713 105.386 123.411 105.293 123.407 105.291L123.25 105.346C123.2 105.418 123.232 105.499 123.273 105.601C123.283 105.626 123.293 105.649 123.296 105.664C123.378 105.991 123.524 106.946 123.524 107.214C123.524 110.187 122.35 111.484 121.081 112.443C119.87 113.355 118.454 113.904 116.859 114.072H116.857C116.825 114.072 116.673 114.086 116.369 114.113C116.172 114.131 115.928 114.153 115.891 114.153L115.855 114.158C115.578 114.236 114.859 114.578 114.859 115.214C114.859 115.743 115.185 116.398 116.74 116.515C117.055 116.539 117.394 116.563 117.747 116.587C119.801 116.73 122.365 116.908 123.572 117.317C125.232 117.921 126.265 119.406 126.265 121.193C126.265 123.861 124.366 126.37 121.185 127.902C119.642 128.628 118.075 128.981 116.382 128.981" fill="#414044"/>
<path d="M106.29 117.498C105.391 117.377 104.736 117.255 103.959 116.892C103.836 116.811 103.672 116.447 103.672 116.326C103.59 115.073 103.59 111.437 103.59 109.054C103.59 107.115 103.263 105.418 102.445 104.205C101.463 102.832 100.072 102.023 98.2722 102.023C96.6768 102.023 94.5493 103.115 92.7909 104.609C92.7496 104.65 92.4794 104.906 92.4852 104.508C92.491 104.111 92.5528 103.302 92.59 102.793C92.6273 102.284 92.3216 102.044 92.3216 102.044C91.1764 102.609 87.9507 103.375 86.7595 103.498C85.8884 103.666 85.6689 104.502 86.5964 104.791C86.5964 104.793 86.6052 104.794 86.6104 104.795C87.5804 105.087 88.2337 105.399 88.7216 105.72C89.0902 106.003 89.0494 106.407 89.0494 106.73C89.0902 109.437 89.0902 113.599 88.9673 115.861C88.9266 116.75 88.6809 117.073 88.0258 117.235L88.0858 117.215C87.595 117.335 87.1857 117.417 86.5726 117.498C86.3676 117.699 86.3676 118.871 86.572 119.113C86.9813 119.113 89.068 118.992 90.7857 118.992C93.1583 118.992 94.3857 119.113 94.9994 119.113C95.2445 118.83 95.3266 117.739 95.163 117.498C94.4672 117.457 93.9764 117.377 93.4855 117.255C92.8311 117.094 92.6675 116.77 92.6273 116.043C92.5452 114.144 92.5452 110.104 92.5452 107.357C92.5452 106.589 92.7496 106.225 92.9953 106.023C93.8127 105.296 95.163 104.812 96.3496 104.812C97.4949 104.812 98.2721 105.175 98.8451 105.66C99.6224 106.306 99.9083 107.235 99.9904 107.922C100.154 109.458 100.113 112.528 100.113 115.194C100.113 116.649 99.9904 117.013 99.4588 117.174C99.2131 117.296 98.5586 117.417 97.7813 117.498C97.5362 117.739 97.6177 118.871 97.7813 119.113C98.8451 119.113 100.072 118.992 101.872 118.992C104.123 118.992 105.554 119.113 106.127 119.113C106.372 118.83 106.453 117.78 106.29 117.498" fill="#414044"/>
<defs>
<linearGradient id="paint0_linear_5_51" x1="3.86775" y1="100.333" x2="20.9963" y2="106.112" gradientUnits="userSpaceOnUse">
<stop stop-color="#929669"/>
<stop offset="0.23" stop-color="#929669"/>
<stop offset="1" stop-color="#FDFCF1"/>
</linearGradient>
<linearGradient id="paint1_linear_5_51" x1="10.1426" y1="72.4891" x2="22.1371" y2="119.052" gradientUnits="userSpaceOnUse">
<stop stop-color="#45AA3A"/>
<stop offset="1" stop-color="#3D9439"/>
</linearGradient>
<linearGradient id="paint2_linear_5_51" x1="-1.24754" y1="99.3457" x2="19.7455" y2="94.5758" gradientUnits="userSpaceOnUse">
<stop stop-color="#41A83B"/>
<stop offset="1" stop-color="#5EBC44"/>
</linearGradient>
</defs>
</svg>
