<svg width="344" height="98" viewBox="0 0 344 98" fill="none" xmlns="http://www.w3.org/2000/svg">
<path d="M23.5708 95.415L21.0118 94.568C21.0118 94.568 21.3388 81.615 16.6668 80.708C13.5868 77.138 17.1408 -71.758 28.3318 80.197C28.3318 80.197 24.5018 82.121 23.7768 85.387C23.0518 88.655 23.5708 95.415 23.5708 95.415" fill="url(#paint0_linear_3_19)"/>
<path d="M24.9509 82.907C24.9509 82.907 47.1899 68.26 41.9799 37.841C36.9619 15.741 25.1159 8.476 23.8429 5.703C22.4419 3.74 21.0309 0.26001 21.0309 0.26001L21.9759 61.837C21.9759 61.837 20.0199 80.639 24.9509 82.907" fill="url(#paint1_linear_3_19)"/>
<path d="M19.7099 83.725C19.7099 83.725 -1.15014 69.494 0.0498572 44.385C1.24986 19.276 15.9839 6.93 18.8539 4.69C20.7089 2.713 20.7859 1.951 20.9289 0C22.2289 2.793 22.0129 41.721 22.1509 46.271C22.6859 63.983 21.1699 80.382 19.7099 83.725Z" fill="url(#paint2_linear_3_19)"/>
<path d="M271.774 75.62C273.249 76.8 276.199 77.286 278.8 77.286C282.173 77.286 285.475 76.66 288.707 73.747C292.008 70.762 294.257 66.183 294.257 58.897C294.257 51.889 291.587 46.199 286.107 42.868C283.015 40.925 279.011 40.162 274.444 40.162C273.109 40.162 271.774 40.232 271.001 40.578C270.79 40.717 270.368 41.272 270.368 41.551C270.228 42.799 270.228 52.305 270.228 57.925C270.228 63.685 270.228 71.734 270.368 72.706C270.44 73.538 270.86 74.995 271.774 75.62V75.62ZM257.75 37.04C258.944 37.04 263.482 37.247 265.591 37.247C269.526 37.247 272.265 37.04 279.642 37.04C285.825 37.04 291.026 38.705 294.749 41.897C299.247 45.783 301.635 51.195 301.635 57.787C301.635 67.155 297.349 72.567 293.064 75.62C288.777 78.811 283.226 80.616 275.287 80.616C271.071 80.616 263.833 80.477 257.791 80.409H257.708C257.427 79.852 258.225 77.689 258.72 77.632C260.353 77.448 260.796 77.385 261.554 77.073C262.829 76.548 263.131 75.898 263.273 73.607C263.482 69.306 263.413 64.171 263.413 58.342C263.413 54.179 263.482 46.06 263.342 43.492C263.131 41.342 262.22 40.787 260.392 40.37C259.478 40.162 258.213 39.954 256.457 39.746C256.316 39.33 257.398 37.455 257.75 37.04" fill="#C0BDBA"/>
<path d="M320.241 40.44C319.961 40.509 319.609 41.204 319.609 41.551C319.54 44.048 319.47 50.57 319.47 55.08C319.47 55.219 319.679 55.427 319.821 55.427C320.734 55.497 322.981 55.567 324.879 55.567C327.549 55.567 329.096 55.219 329.938 54.803C332.186 53.693 333.24 51.264 333.24 48.628C333.24 42.591 329.024 40.301 322.772 40.301C322.35 40.301 321.155 40.301 320.241 40.44V40.44ZM336.191 68.196C336.191 62.089 331.695 58.62 323.473 58.62C323.122 58.62 320.522 58.55 319.89 58.69C319.679 58.758 319.47 58.897 319.47 59.036C319.47 63.408 319.398 70.416 319.609 73.191C319.75 74.371 320.594 76.037 321.647 76.522C322.772 77.147 325.3 77.286 327.057 77.286C331.905 77.286 336.191 74.579 336.191 68.196ZM307.552 37.04C308.184 37.04 310.055 37.247 314.832 37.247C319.329 37.247 322.981 37.109 327.338 37.109C332.748 37.109 340.195 39.052 340.195 47.101C340.195 51.056 337.386 54.248 333.732 55.775C333.521 55.844 333.521 55.983 333.732 56.053C338.932 57.37 343.499 60.562 343.499 66.669C343.499 72.636 339.775 76.384 334.365 78.743C331.062 80.199 326.988 80.685 322.841 80.685C319.679 80.685 311.207 80.338 306.499 80.409C306.006 80.199 306.95 77.979 307.37 77.632C308.495 77.563 309.362 77.482 310.557 77.135C312.242 76.719 312.442 76.175 312.653 73.677C312.795 71.527 312.795 63.824 312.795 58.342C312.795 50.848 312.864 45.783 312.795 43.285C312.723 41.342 312.021 40.717 310.686 40.37C309.633 40.162 307.877 39.954 306.471 39.746C306.119 39.399 307.201 37.317 307.552 37.04Z" fill="#C0BDBA"/>
<path d="M56.1908 80.586C56.0738 80.399 55.9499 79.847 55.9759 79.183C55.9959 78.678 56.0958 78.357 56.1908 78.248C57.5158 78.038 58.1429 77.897 58.8879 77.698C60.1299 77.39 60.5979 76.719 60.6709 75.13C60.8749 71.388 60.8868 64.37 60.8118 59.435L60.8129 59.29C60.8189 58.76 60.8269 58.036 60.1619 57.526C59.1879 56.884 57.9729 56.353 56.4359 55.892C55.8479 55.718 55.5218 55.408 55.5398 55.047C55.5578 54.699 55.9269 54.257 56.6939 54.109C58.7279 53.899 64.0629 52.629 66.1559 51.663C66.2799 51.814 66.4759 52.14 66.4379 52.661C66.4219 52.879 66.4029 53.108 66.3839 53.345C66.3239 54.043 66.2569 54.833 66.2569 55.622C66.2569 55.854 66.5089 56.074 66.7759 56.074C66.9119 56.074 67.0369 56.021 67.1389 55.92C71.1289 52.798 74.6968 51.683 76.5338 51.683C79.5518 51.683 81.9009 53.124 83.7159 56.086C83.8229 56.243 83.9659 56.326 84.1249 56.326C84.2769 56.326 84.4208 56.247 84.5058 56.121C88.1738 53.342 91.8099 51.683 94.2399 51.683C99.9919 51.683 103.428 55.984 103.428 63.186C103.428 65.255 103.406 67.878 103.388 70.327C103.371 72.475 103.356 74.489 103.356 75.883C103.356 76.221 103.808 77.158 104.49 77.345C105.331 77.754 106.546 77.963 108.081 78.228L108.14 78.237C108.257 78.65 108.012 80.256 107.778 80.585C107.398 80.582 106.87 80.554 106.213 80.521C105.019 80.46 103.382 80.377 101.477 80.377C97.6549 80.377 95.6579 80.452 93.7499 80.575C93.6069 80.099 93.5568 78.562 93.7318 78.242C94.8438 78.034 95.3939 77.893 96.0619 77.696C97.2779 77.295 97.6289 76.744 97.6989 75.13C97.7279 73.982 97.9479 63.882 97.5569 61.484C97.1959 58.999 95.3208 56.09 91.2188 56.09C89.6978 56.09 87.2398 56.722 84.8958 58.497C84.7508 58.638 84.6669 58.912 84.6669 59.092L84.6719 59.138C84.9479 60.433 84.9479 61.943 84.9479 64.227C84.9479 65.529 84.9389 66.91 84.9319 68.281C84.9159 71.066 84.9009 73.695 84.9479 75.681C84.9479 77.036 85.7669 77.359 86.4269 77.62C86.7839 77.699 87.0688 77.767 87.3528 77.835C87.9058 77.968 88.4769 78.105 89.3229 78.241C89.4379 78.508 89.4488 79.305 89.2898 79.987C89.2008 80.363 89.0989 80.529 89.0459 80.583C86.9199 80.51 84.7389 80.447 81.5929 80.447C80.6389 80.447 79.0818 80.488 77.7078 80.524C76.5948 80.554 75.5398 80.583 74.9408 80.586C74.8538 80.448 74.7318 80.009 74.7318 79.376C74.7318 78.788 74.8408 78.373 74.9518 78.245C75.2468 78.19 75.5279 78.141 75.7969 78.093C76.5349 77.962 77.1718 77.849 77.7838 77.699C78.8248 77.382 79.2159 76.803 79.2919 75.481C79.4949 72.393 79.6539 63.497 79.2159 61.269C78.4719 57.694 76.4338 55.883 73.1608 55.883C71.2428 55.883 68.8208 56.805 66.8398 58.288C66.5078 58.532 66.2569 59.148 66.2569 59.716C66.2569 60.775 66.2539 62.037 66.2499 63.389C66.2359 67.857 66.2209 73.418 66.3299 75.824C66.3959 76.564 66.6539 77.444 68.0499 77.769C68.3549 77.854 68.8829 77.942 69.4939 78.043C69.8459 78.102 70.2309 78.166 70.6269 78.237C70.7689 78.619 70.6819 80.119 70.4379 80.586C69.8279 80.582 69.0768 80.547 68.2148 80.509C66.8978 80.451 65.2609 80.377 63.3949 80.377C61.1989 80.377 59.6699 80.451 58.4419 80.509C57.6179 80.547 56.9038 80.582 56.1908 80.586Z" fill="#414044"/>
<path d="M125.896 54.633C124.617 54.633 123.423 54.968 122.535 55.576C120.095 57.058 118.853 60.018 118.853 64.365C118.853 72.506 122.934 78.19 128.776 78.19C130.5 78.19 131.905 77.696 133.073 76.677C134.868 75.214 135.82 72.226 135.82 68.042C135.82 60.022 131.832 54.633 125.896 54.633ZM127.021 81.21C116.465 81.21 112.704 73.476 112.704 66.239C112.704 61.183 114.773 57.23 118.857 54.491C121.76 52.709 125.225 51.683 128.356 51.683C136.412 51.683 142.039 57.469 142.039 65.753C142.039 71.386 139.79 75.832 135.537 78.61C133.497 79.86 129.958 81.21 127.021 81.21" fill="#414044"/>
<path d="M235.211 54.633C233.93 54.633 232.735 54.968 231.848 55.576C229.409 57.058 228.167 60.017 228.167 64.365C228.167 72.506 232.246 78.19 238.09 78.19C239.814 78.19 241.219 77.696 242.387 76.676C244.181 75.214 245.134 72.226 245.134 68.043C245.134 60.022 241.146 54.633 235.211 54.633V54.633ZM236.335 81.21C225.778 81.21 222.017 73.476 222.017 66.239C222.017 61.182 224.088 57.229 228.172 54.49C231.074 52.708 234.539 51.683 237.669 51.683C245.726 51.683 251.353 57.47 251.353 65.753C251.353 71.387 249.104 75.832 244.851 78.609C242.811 79.86 239.273 81.21 236.335 81.21Z" fill="#414044"/>
<path d="M199.885 54.357C196.631 54.357 194.528 56.923 194.528 60.896C194.528 64.905 196.337 69.586 201.432 69.586C202.307 69.586 203.893 69.198 204.679 68.332C205.863 67.246 206.636 65.001 206.636 62.63C206.636 57.449 204.112 54.357 199.885 54.357ZM199.465 81.764C198.242 81.764 197.353 82.12 196.822 82.418C194.246 84.067 193.052 85.714 193.052 87.61C193.052 89.399 193.748 90.82 195.241 92.083C197.049 93.613 199.488 94.359 202.696 94.359C209.005 94.359 211.834 90.969 211.834 87.61C211.834 85.273 210.66 83.706 208.244 82.82C206.382 82.14 203.272 81.764 199.465 81.764V81.764ZM199.885 97.864C196.096 97.864 193.365 97.065 191.032 95.272C188.763 93.523 187.747 90.929 187.747 89.136C187.747 88.621 187.869 87.288 188.99 86.015C189.651 85.266 191.18 83.863 194.713 81.436C194.821 81.395 194.897 81.288 194.897 81.158C194.897 81.013 194.803 80.896 194.675 80.869C191.763 79.755 190.885 77.928 190.62 76.936C190.616 76.901 190.604 76.844 190.591 76.783C190.508 76.394 190.43 76.027 190.956 75.649C191.364 75.359 192.019 74.971 192.712 74.562C193.736 73.958 194.896 73.274 195.538 72.724C195.64 72.625 195.681 72.479 195.657 72.334C195.632 72.187 195.547 72.066 195.421 72.004C191.112 70.558 188.942 67.36 188.942 62.491C188.942 59.348 190.393 56.506 192.922 54.695C194.656 53.326 199.006 51.682 201.824 51.682L201.988 51.683C204.888 51.752 206.522 52.358 208.784 53.195C210.012 53.649 211.175 53.834 212.801 53.834C215.202 53.834 216.25 53.074 217.149 52.201C217.201 52.309 217.324 52.652 217.378 53.442C217.435 54.248 217.215 55.441 216.598 56.293C216.107 56.972 214.97 57.465 213.897 57.465C213.789 57.465 213.683 57.46 213.581 57.449C212.476 57.341 211.957 57.18 211.951 57.177L211.681 57.271C211.595 57.396 211.651 57.535 211.721 57.71C211.738 57.752 211.755 57.792 211.761 57.818C211.902 58.38 212.152 60.02 212.152 60.479C212.152 65.586 210.135 67.813 207.956 69.46C205.876 71.027 203.444 71.97 200.704 72.259H200.702C200.646 72.259 200.386 72.283 199.863 72.329C199.525 72.36 199.105 72.398 199.043 72.398L198.981 72.406C198.505 72.54 197.269 73.127 197.269 74.219C197.269 75.128 197.83 76.254 200.501 76.455C201.042 76.496 201.623 76.536 202.23 76.578C205.757 76.823 210.161 77.129 212.234 77.831C215.086 78.869 216.86 81.42 216.86 84.488C216.86 89.071 213.598 93.38 208.135 96.012C205.485 97.258 202.794 97.864 199.885 97.864" fill="#414044"/>
<path d="M182.553 78.142C181.008 77.934 179.883 77.725 178.549 77.101C178.338 76.962 178.056 76.338 178.056 76.129C177.915 73.978 177.915 67.733 177.915 63.64C177.915 60.309 177.354 57.395 175.949 55.312C174.262 52.953 171.874 51.565 168.782 51.565C166.042 51.565 162.388 53.439 159.368 56.006C159.297 56.076 158.833 56.516 158.843 55.832C158.853 55.15 158.959 53.761 159.023 52.886C159.087 52.012 158.562 51.6 158.562 51.6C156.595 52.571 151.055 53.887 149.009 54.098C147.513 54.386 147.136 55.822 148.729 56.318C148.729 56.321 148.744 56.323 148.753 56.326C150.419 56.827 151.541 57.362 152.379 57.914C153.012 58.4 152.942 59.094 152.942 59.649C153.012 64.298 153.012 71.446 152.801 75.331C152.731 76.858 152.309 77.412 151.184 77.691L151.287 77.656C150.444 77.863 149.741 78.003 148.688 78.142C148.336 78.488 148.336 80.5 148.687 80.917C149.39 80.917 152.974 80.709 155.924 80.709C159.999 80.709 162.107 80.917 163.161 80.917C163.582 80.431 163.723 78.557 163.442 78.142C162.247 78.072 161.404 77.934 160.561 77.725C159.437 77.448 159.156 76.893 159.087 75.643C158.946 72.382 158.946 65.444 158.946 60.725C158.946 59.406 159.297 58.782 159.719 58.435C161.123 57.185 163.442 56.354 165.48 56.354C167.447 56.354 168.782 56.978 169.766 57.81C171.101 58.921 171.592 60.516 171.733 61.696C172.014 64.334 171.943 69.607 171.943 74.186C171.943 76.685 171.733 77.309 170.82 77.586C170.398 77.795 169.274 78.003 167.939 78.142C167.518 78.557 167.658 80.5 167.939 80.917C169.766 80.917 171.874 80.709 174.965 80.709C178.83 80.709 181.288 80.917 182.272 80.917C182.693 80.431 182.833 78.627 182.553 78.142" fill="#414044"/>
<defs>
<linearGradient id="paint0_linear_3_19" x1="6.64285" y1="48.662" x2="36.061" y2="58.5873" gradientUnits="userSpaceOnUse">
<stop stop-color="#929669"/>
<stop offset="0.23" stop-color="#929669"/>
<stop offset="1" stop-color="#FDFCF1"/>
</linearGradient>
<linearGradient id="paint1_linear_3_19" x1="17.4199" y1="0.84001" x2="38.0203" y2="80.8113" gradientUnits="userSpaceOnUse">
<stop stop-color="#45AA3A"/>
<stop offset="1" stop-color="#3D9439"/>
</linearGradient>
<linearGradient id="paint2_linear_3_19" x1="-2.14264" y1="46.966" x2="33.9128" y2="38.7739" gradientUnits="userSpaceOnUse">
<stop stop-color="#41A83B"/>
<stop offset="1" stop-color="#5EBC44"/>
</linearGradient>
</defs>
</svg>
