<?xml version="1.0" standalone="no"?>
<!DOCTYPE svg PUBLIC "-//W3C//DTD SVG 20010904//EN"
 "http://www.w3.org/TR/2001/REC-SVG-20010904/DTD/svg10.dtd">
<svg version="1.0" xmlns="http://www.w3.org/2000/svg"
 width="267.000000pt" height="267.000000pt" viewBox="0 0 267.000000 267.000000"
 preserveAspectRatio="xMidYMid meet">
<metadata>
Created by potrace 1.14, written by Peter Selinger 2001-2017
</metadata>
<g transform="translate(0.000000,267.000000) scale(0.100000,-0.100000)"
fill="#000000" stroke="none">
<path d="M1086 2655 c-12 -6 -23 -24 -26 -40 -6 -35 3 -121 14 -132 4 -5 105
-9 223 -10 183 -2 219 -4 232 -18 14 -14 16 -102 17 -853 2 -872 -1 -941 -42
-1064 -38 -119 -103 -215 -179 -265 -22 -15 -71 -37 -110 -49 -61 -20 -87 -23
-210 -21 -120 3 -147 6 -191 26 -73 32 -107 71 -110 123 -2 54 5 67 76 137 60
60 68 77 74 171 6 87 -34 154 -116 194 -44 21 -64 25 -118 22 -188 -11 -297
-187 -256 -416 13 -72 79 -200 133 -254 140 -141 306 -201 553 -200 85 1 183
12 218 25 15 6 29 10 32 10 41 -2 183 68 256 128 143 116 239 283 296 516 21
88 22 107 25 913 2 469 8 834 13 848 11 27 -3 25 240 26 80 0 151 5 158 11 14
11 17 144 2 167 -8 13 -88 15 -596 15 -388 0 -594 -3 -608 -10z"/>
</g>
</svg>
